<svg width="48" height="49" viewBox="0 0 48 49" fill="none" xmlns="http://www.w3.org/2000/svg">
<rect y="0.689941" width="48" height="48" rx="24" fill="#D93025"/>
<path opacity="0.3" d="M37.4993 13.691H10.5012L11.5012 35.4395H36.4993L37.4993 13.691Z" fill="white"/>
<path opacity="0.3" d="M37.4993 13.691H10.5012L22.9375 22.9712H25.25L37.4993 13.691Z" fill="white"/>
<path opacity="0.1" d="M12.75 35.4399L24 25.3149L35.25 35.4399H12.75Z" fill="white"/>
<path fill-rule="evenodd" clip-rule="evenodd" d="M12.751 15.5662C12.751 14.5312 11.9126 13.6913 10.8762 13.6913C9.84122 13.6913 9.00128 14.5312 9.00128 15.5662C9.00128 19.5589 9.00128 28.8867 9.00128 33.1899C9.00128 34.4333 10.0092 35.4398 11.2511 35.4398C12.0491 35.4398 12.751 35.4398 12.751 35.4398C12.751 35.4398 12.751 20.8443 12.751 15.5662Z" fill="white"/>
<path fill-rule="evenodd" clip-rule="evenodd" d="M35.2495 15.5659C35.2495 14.531 36.0894 13.691 37.1243 13.691C37.1258 13.691 37.1273 13.691 37.1273 13.691C38.1622 13.691 38.9992 14.5295 38.9992 15.5629C38.9992 19.5541 38.9992 28.885 38.9992 33.1897C38.9992 34.4331 37.9928 35.4395 36.7493 35.4395C35.9529 35.4395 35.2495 35.4395 35.2495 35.4395C35.2495 35.4395 35.2495 20.844 35.2495 15.5659Z" fill="white"/>
<path fill-rule="evenodd" clip-rule="evenodd" d="M9.93699 17.1888C9.50652 16.9398 9.19304 16.5318 9.06405 16.0518C8.93506 15.5719 9.00256 15.0619 9.25154 14.6314C9.25154 14.6314 9.25304 14.6299 9.25304 14.6284C9.50202 14.198 9.91149 13.8845 10.3915 13.7555C10.8714 13.6265 11.3829 13.694 11.8134 13.943L24 20.979L36.1896 13.9415C36.6201 13.6925 37.1301 13.625 37.61 13.754C38.09 13.883 38.498 14.1965 38.747 14.6269L38.7485 14.6284C38.9974 15.0589 39.0649 15.5719 38.9359 16.0518C38.807 16.5318 38.492 16.9413 38.0615 17.1903L27.7497 23.1433L24 25.3092L20.2503 23.1433L9.93699 17.1888Z" fill="white"/>
</svg>
