<svg width="19" height="20" viewBox="0 0 19 20" fill="none" xmlns="http://www.w3.org/2000/svg">
<g id="UI icon/info/filled">
<path id="Subtract" fill-rule="evenodd" clip-rule="evenodd" d="M17.054 10.1873C17.054 14.4295 13.615 17.8685 9.37279 17.8685C5.13058 17.8685 1.69159 14.4295 1.69159 10.1873C1.69159 5.9451 5.13058 2.5061 9.37279 2.5061C13.615 2.5061 17.054 5.9451 17.054 10.1873ZM9.37279 9.41919C9.79701 9.41919 10.1409 9.76309 10.1409 10.1873V14.0286C10.1409 14.4528 9.79701 14.7967 9.37279 14.7967C8.94857 14.7967 8.60467 14.4528 8.60467 14.0286V10.1873C8.60467 9.76309 8.94857 9.41919 9.37279 9.41919ZM9.37279 7.88295C9.79701 7.88295 10.1409 7.53905 10.1409 7.11483C10.1409 6.6906 9.79701 6.34671 9.37279 6.34671C8.94857 6.34671 8.60467 6.6906 8.60467 7.11483C8.60467 7.53905 8.94857 7.88295 9.37279 7.88295Z" fill="#33383F"/>
</g>
</svg>
