<svg width="27" height="27" viewBox="0 0 27 27" fill="none" xmlns="http://www.w3.org/2000/svg">
<g id="pie-chart">
<rect x="0.811035" y="0.593994" width="25.8853" height="25.8853" rx="12.9426" fill="#4285F4"/>
<path id="Vector" d="M19.3414 15.895C18.9555 16.8078 18.3518 17.6121 17.5832 18.2376C16.8146 18.8632 15.9044 19.2909 14.9323 19.4834C13.9602 19.676 12.9557 19.6274 12.0067 19.3421C11.0577 19.0567 10.193 18.5432 9.48827 17.8465C8.78354 17.1498 8.26022 16.2911 7.96405 15.3454C7.66787 14.3997 7.60788 13.3958 7.7893 12.4216C7.97072 11.4473 8.38803 10.5324 9.00476 9.75667C9.62149 8.98097 10.4188 8.36816 11.3271 7.9718" stroke="white" stroke-width="1.21337" stroke-linecap="round" stroke-linejoin="round"/>
<path id="Vector_2" d="M19.8205 13.5356C19.8205 12.7388 19.6636 11.9499 19.3587 11.2139C19.0538 10.4778 18.6069 9.80903 18.0436 9.24567C17.4802 8.68232 16.8114 8.23544 16.0753 7.93056C15.3393 7.62567 14.5504 7.46875 13.7537 7.46875V13.5356H19.8205Z" stroke="white" stroke-width="1.21337" stroke-linecap="round" stroke-linejoin="round"/>
</g>
</svg>
