<svg width="27" height="27" viewBox="0 0 27 27" fill="none" xmlns="http://www.w3.org/2000/svg">
<g id="pie-chart">
<rect x="0.669189" y="0.568604" width="25.8509" height="25.8509" rx="12.9254" fill="#FFA629"/>
<path id="Vector" d="M19.1756 15.8495C18.7901 16.761 18.1873 17.5642 17.4197 18.189C16.6521 18.8137 15.7431 19.2408 14.7723 19.4331C13.8015 19.6254 12.7983 19.5769 11.8506 19.2919C10.9028 19.007 10.0393 18.4942 9.33549 17.7984C8.6317 17.1026 8.10907 16.245 7.81329 15.3005C7.51751 14.3561 7.45759 13.3536 7.63877 12.3806C7.81995 11.4077 8.23671 10.4939 8.85262 9.71927C9.46853 8.9446 10.2648 8.3326 11.1719 7.93677" stroke="white" stroke-width="1.21175" stroke-linecap="round" stroke-linejoin="round"/>
<path id="Vector_2" d="M19.6536 13.4932C19.6536 12.6975 19.4969 11.9097 19.1925 11.1746C18.888 10.4395 18.4417 9.77162 17.8791 9.20901C17.3165 8.64641 16.6485 8.20012 15.9135 7.89564C15.1784 7.59116 14.3905 7.43445 13.5948 7.43445V13.4932H19.6536Z" stroke="white" stroke-width="1.21175" stroke-linecap="round" stroke-linejoin="round"/>
</g>
</svg>
