<svg width="56" height="57" viewBox="0 0 56 57" fill="none" xmlns="http://www.w3.org/2000/svg">
<rect x="0.546997" y="0.94751" width="55.3047" height="55.3047" rx="27.6523" fill="#2F80ED"/>
<path fill-rule="evenodd" clip-rule="evenodd" d="M25.306 20.5965C25.1759 19.9894 24.3095 19.9893 24.1794 20.5965L22.8031 27.0193C22.4616 28.613 21.0532 29.7516 19.4233 29.7516H17.8296C17.1933 29.7516 16.6774 29.2357 16.6774 28.5994C16.6774 27.9631 17.1933 27.4472 17.8296 27.4472H19.4233C19.9666 27.4472 20.436 27.0677 20.5499 26.5365L21.9262 20.1137C22.5767 17.0778 26.9087 17.0778 27.5592 20.1137L31.0925 36.6023C31.2226 37.2095 32.089 37.2094 32.2191 36.6023L33.5954 30.1795C33.9369 28.5858 35.3453 27.4472 36.9752 27.4472H38.5689C39.2052 27.4472 39.721 27.9631 39.721 28.5994C39.721 29.2357 39.2052 29.7516 38.5689 29.7516H36.9752C36.4319 29.7516 35.9624 30.1311 35.8486 30.6624L34.4723 37.0851C33.8217 40.121 29.4898 40.121 28.8393 37.0851L25.306 20.5965Z" fill="#FCFCFC"/>
</svg>
