<svg width="48" height="49" viewBox="0 0 48 49" fill="none" xmlns="http://www.w3.org/2000/svg">
<rect y="0.689941" width="48" height="48" rx="24" fill="#419FD9"/>
<rect y="0.689941" width="48" height="48" rx="24" fill="url(#paint0_linear_68_703)"/>
<path d="M10.7874 24.1609C17.7667 21.0562 22.4206 19.0094 24.7493 18.0205C31.3979 15.1969 32.7795 14.7065 33.68 14.6901C33.878 14.6867 34.3208 14.7368 34.6077 14.9745C34.8499 15.1751 34.9165 15.4462 34.9484 15.6364C34.9803 15.8267 35.02 16.2601 34.9884 16.5987C34.6281 20.464 33.0692 29.8438 32.276 34.1729C31.9404 36.0047 31.2796 36.6189 30.6399 36.679C29.2496 36.8097 28.1938 35.7409 26.8473 34.8397C24.7401 33.4294 23.5498 32.5515 21.5044 31.1753C19.1407 29.5849 20.673 28.7108 22.0201 27.2822C22.3726 26.9084 28.4983 21.2195 28.6169 20.7034C28.6317 20.6389 28.6455 20.3983 28.5055 20.2712C28.3655 20.1442 28.1589 20.1876 28.0098 20.2222C27.7985 20.2712 24.4323 22.5428 17.9113 27.0372C16.9558 27.7071 16.0904 28.0335 15.315 28.0164C14.4602 27.9975 12.8159 27.5229 11.5935 27.1172C10.0942 26.6196 8.90254 26.3565 9.0063 25.5114C9.06035 25.0712 9.65403 24.621 10.7874 24.1609Z" fill="white"/>
<defs>
<linearGradient id="paint0_linear_68_703" x1="24" y1="0.689941" x2="24" y2="48.3338" gradientUnits="userSpaceOnUse">
<stop stop-color="#2AABEE"/>
<stop offset="1" stop-color="#229ED9"/>
</linearGradient>
</defs>
</svg>
