<svg width="52" height="51" viewBox="0 0 52 51" fill="none" xmlns="http://www.w3.org/2000/svg">
<rect x="0.433594" y="0.300293" width="50.6471" height="50.6471" rx="7.23529" fill="#EDF7FF"/>
<path d="M25.561 20.4559C28.5004 20.4559 30.9875 22.9431 30.9875 25.8824C30.9875 28.8783 28.5004 31.3089 25.561 31.3089C22.5652 31.3089 20.1346 28.8783 20.1346 25.8824C20.1346 22.9431 22.5652 20.4559 25.561 20.4559ZM39.4664 25.0345C40.2012 25.3737 40.2012 26.4477 39.4664 26.7868L34.0964 29.4435L36.0183 35.1526C36.2444 35.8875 35.5096 36.6223 34.7747 36.3962L29.0656 34.4743L26.4089 39.8443C26.0698 40.5791 24.9958 40.5791 24.6566 39.8443L21.9999 34.4743L16.2908 36.3962C15.556 36.6223 14.8211 35.8875 15.0472 35.1526L16.9691 29.4435L11.5992 26.7868C10.8643 26.4477 10.8643 25.3737 11.5992 25.0345L16.9691 22.3778L15.0472 16.6687C14.8211 15.9339 15.556 15.199 16.2908 15.4252L21.9999 17.347L24.6566 11.9771C24.9958 11.2422 26.0698 11.2422 26.4089 11.9771L29.0656 17.347L34.7747 15.4252C35.5096 15.199 36.2444 15.9339 36.0183 16.6687L34.0964 22.3778L39.4664 25.0345ZM30.6483 31.0263C33.4746 28.2 33.4746 23.6214 30.6483 20.7951C27.8221 17.9688 23.2435 17.9688 20.4172 20.7951C17.5909 23.6214 17.5909 28.2 20.4172 31.0263C23.2435 33.8525 27.8221 33.8525 30.6483 31.0263Z" fill="#001726"/>
</svg>
