<svg width="52" height="52" viewBox="0 0 52 52" fill="none" xmlns="http://www.w3.org/2000/svg">
<rect x="0.433594" y="0.393311" width="50.6471" height="50.6471" rx="7.23529" fill="#EDF7FF"/>
<path d="M37.8312 38.0551C38.1704 38.0551 38.5096 38.3943 38.5096 38.7334V39.8639H13.186V38.7334C13.186 38.3943 13.4687 38.0551 13.8643 38.0551H14.9948V12.2794C14.9948 11.5445 15.5601 10.9227 16.3515 10.9227H35.3441C36.0789 10.9227 36.7007 11.5445 36.7007 12.2794V38.0551H37.8312ZM20.4213 15.2187V17.4797C20.4213 17.8754 20.7039 18.158 21.0996 18.158H23.3607C23.6998 18.158 24.039 17.8754 24.039 17.4797V15.2187C24.039 14.8795 23.6998 14.5404 23.3607 14.5404H21.0996C20.7039 14.5404 20.4213 14.8795 20.4213 15.2187ZM20.4213 20.6452V22.9062C20.4213 23.3019 20.7039 23.5845 21.0996 23.5845H23.3607C23.6998 23.5845 24.039 23.3019 24.039 22.9062V20.6452C24.039 20.306 23.6998 19.9669 23.3607 19.9669H21.0996C20.7039 19.9669 20.4213 20.306 20.4213 20.6452ZM23.3607 29.011C23.6998 29.011 24.039 28.7284 24.039 28.3327V26.0716C24.039 25.7325 23.6998 25.3933 23.3607 25.3933H21.0996C20.7039 25.3933 20.4213 25.7325 20.4213 26.0716V28.3327C20.4213 28.7284 20.7039 29.011 21.0996 29.011H23.3607ZM27.6566 38.0551V33.3069C27.6566 32.9678 27.3175 32.6286 26.9783 32.6286H24.7173C24.3216 32.6286 24.039 32.9678 24.039 33.3069V38.0551H27.6566ZM31.2743 28.3327V26.0716C31.2743 25.7325 30.9351 25.3933 30.5959 25.3933H28.3349C27.9392 25.3933 27.6566 25.7325 27.6566 26.0716V28.3327C27.6566 28.7284 27.9392 29.011 28.3349 29.011H30.5959C30.9351 29.011 31.2743 28.7284 31.2743 28.3327ZM31.2743 22.9062V20.6452C31.2743 20.306 30.9351 19.9669 30.5959 19.9669H28.3349C27.9392 19.9669 27.6566 20.306 27.6566 20.6452V22.9062C27.6566 23.3019 27.9392 23.5845 28.3349 23.5845H30.5959C30.9351 23.5845 31.2743 23.3019 31.2743 22.9062ZM31.2743 17.4797V15.2187C31.2743 14.8795 30.9351 14.5404 30.5959 14.5404H28.3349C27.9392 14.5404 27.6566 14.8795 27.6566 15.2187V17.4797C27.6566 17.8754 27.9392 18.158 28.3349 18.158H30.5959C30.9351 18.158 31.2743 17.8754 31.2743 17.4797Z" fill="#001726"/>
</svg>
