<svg width="52" height="51" viewBox="0 0 52 51" fill="none" xmlns="http://www.w3.org/2000/svg">
<rect x="0.816162" y="0.351807" width="50.6471" height="50.6471" rx="7.23529" fill="#EDF7FF"/>
<path d="M43.2444 13.9902C43.8662 14.2728 44.3184 14.9512 44.3184 15.6295V33.6047C44.3184 34.6221 43.414 35.3569 42.4531 35.3569C42.2835 35.3569 42.0574 35.3569 41.8878 35.3004C40.1355 34.7352 38.3832 34.5091 36.6309 34.5091C29.6783 34.5091 22.7256 38.0137 15.7729 38.0137C13.5684 38.0137 11.3639 37.6745 9.15942 36.7701C8.53764 36.4875 8.14196 35.8092 8.14196 35.1308V17.1557C8.14196 16.1382 8.98984 15.3468 9.95078 15.3468C10.1204 15.3468 10.3465 15.4034 10.516 15.4599C12.2683 16.0251 14.0206 16.2513 15.7729 16.2513C22.7256 16.2513 29.6783 12.6901 36.6309 12.6901C38.8354 12.6901 41.0399 13.0858 43.2444 13.9902ZM10.8552 18.3992V21.7908C12.6075 21.7908 14.0206 20.5472 14.3598 18.908C13.1727 18.7949 11.9857 18.6819 10.8552 18.3992ZM10.8552 34.5091C11.9857 34.9047 13.1727 35.1874 14.4163 35.2439C14.3598 33.322 12.7771 31.7958 10.8552 31.7958V34.5091ZM26.2302 30.7784C28.7173 30.7784 30.7522 28.4043 30.7522 25.3519C30.7522 22.356 28.7173 19.9254 26.2302 19.9254C23.6865 19.9254 21.7081 22.356 21.7081 25.3519C21.7081 28.4043 23.6865 30.7784 26.2302 30.7784ZM41.6052 32.3611V29.1391C40.079 29.3087 38.8354 30.4392 38.4963 31.9089C39.5703 31.9654 40.5877 32.135 41.6052 32.3611ZM41.6052 19.021V16.2513C40.5877 15.9121 39.5137 15.686 38.4397 15.5729C38.4963 17.3252 39.8529 18.7949 41.6052 19.021Z" fill="#001726"/>
</svg>
