<svg width="52" height="52" viewBox="0 0 52 52" fill="none" xmlns="http://www.w3.org/2000/svg">
<rect x="0.911987" y="0.447388" width="50.6471" height="50.6471" rx="7.23529" fill="#EDF7FF"/>
<path d="M29.9437 29.0649C30.9047 29.0649 31.7525 29.9128 31.7525 30.8737V38.109C31.7525 39.1265 30.9047 39.9178 29.9437 39.9178H22.7084C21.691 39.9178 20.8996 39.1265 20.8996 38.109V30.8737C20.8996 29.9128 21.691 29.0649 22.7084 29.0649H29.9437ZM19.0908 12.7855V14.5943H31.7525V18.2119H19.0908V20.9252L22.7084 27.2561C21.3518 27.2561 20.1648 27.9909 19.543 29.1214L15.4166 21.8296H10.0467C9.0292 21.8296 8.23784 21.0382 8.23784 20.0208V12.7855C8.23784 11.8245 9.0292 10.9766 10.0467 10.9766H17.282C18.2429 10.9766 19.0908 11.8245 19.0908 12.7855ZM42.6055 10.9766C43.5664 10.9766 44.4143 11.8245 44.4143 12.7855V20.0208C44.4143 21.0382 43.5664 21.8296 42.6055 21.8296H35.3702C34.3527 21.8296 33.5614 21.0382 33.5614 20.0208V12.7855C33.5614 11.8245 34.3527 10.9766 35.3702 10.9766H42.6055Z" fill="#001726"/>
</svg>
