<svg width="52" height="51" viewBox="0 0 52 51" fill="none" xmlns="http://www.w3.org/2000/svg">
<rect x="0.720703" y="0.0725098" width="50.6471" height="50.6471" rx="7.23529" fill="#EDF7FF"/>
<path d="M32.5785 14.2194C33.0873 14.2194 33.5395 14.4455 33.8786 14.7847L36.931 17.8371V28.8031C36.818 28.6335 36.6484 28.5204 36.5353 28.3508L28.2826 21.6808L29.7523 20.3242C30.1479 19.985 30.1479 19.4198 29.8088 19.0806C29.4696 18.6849 28.9044 18.6849 28.5087 19.0241L24.0432 23.1505C23.9866 23.1505 23.9866 23.1505 23.9866 23.1505C23.0257 23.9984 21.556 23.7723 20.8212 22.9809C20.0298 22.133 20.0298 20.7199 20.9342 19.8155L26.5303 14.7281C26.8694 14.389 27.2651 14.2194 27.7173 14.2194H32.5785ZM38.7964 17.8936H44.2228V32.3642H40.6052C39.5877 32.3642 38.7964 31.5163 38.7964 30.5553V17.8936ZM41.5096 30.5553C41.9618 30.5553 42.414 30.1031 42.414 29.6509C42.414 29.1422 41.9618 28.7465 41.5096 28.7465C41.0009 28.7465 40.6052 29.1422 40.6052 29.6509C40.6052 30.1031 41.0009 30.5553 41.5096 30.5553ZM8.04638 32.3076V17.8936H13.4728V30.4988C13.4728 31.5163 12.625 32.3076 11.664 32.3076H8.04638ZM10.7596 28.7465C10.2509 28.7465 9.8552 29.1422 9.8552 29.6509C9.8552 30.1031 10.2509 30.5553 10.7596 30.5553C11.2118 30.5553 11.664 30.1031 11.664 29.6509C11.664 29.1422 11.2118 28.7465 10.7596 28.7465ZM35.3483 29.764C36.1397 30.3858 36.2527 31.5163 35.6309 32.3076L35.1222 32.986C34.4439 33.7773 33.3134 33.8904 32.5785 33.2686L32.2394 32.986L30.4871 35.1905C29.7523 36.0949 28.3956 36.2079 27.4912 35.4731L26.5303 34.6252H26.4738C25.2302 36.1514 22.9692 36.434 21.3864 35.1339L16.2991 30.4988H15.2817V17.8371L18.3341 14.7847C18.6732 14.4455 19.1254 14.2194 19.6342 14.2194H24.3823L19.7472 18.4588C18.108 19.985 17.9949 22.5852 19.4646 24.2245C20.9908 25.8637 23.5344 26.0333 25.2302 24.4506L26.926 22.9244L35.3483 29.764Z" fill="#001726"/>
</svg>
