<svg width="51" height="51" viewBox="0 0 51 51" fill="none" xmlns="http://www.w3.org/2000/svg">
<rect x="0.0078125" y="0.351807" width="50.6471" height="50.6471" rx="7.23529" fill="#EDF7FF"/>
<path d="M24.4609 19.0775C23.1042 18.6818 21.9737 17.6643 21.8041 16.3642C21.578 14.5554 22.9912 13.0292 24.8565 12.8031V11.7857C24.8565 11.3335 25.2522 10.8812 25.8175 10.8812H26.7784C27.3437 10.8812 27.7959 11.3335 27.7959 11.7857V12.8031C28.4742 12.9162 29.1525 13.1423 29.7178 13.4814C29.8873 13.5945 30.0569 13.7641 30.0569 14.0467C30.0569 14.1597 30.0004 14.2728 29.9439 14.3293C29.8873 14.3858 29.8873 14.4424 29.8308 14.4989L28.7568 15.5164C28.5307 15.6859 28.1916 15.7425 27.9089 15.6294C27.6828 15.5164 27.4567 15.4598 27.2306 15.4598H25.2522C24.9696 15.4598 24.7435 15.6859 24.7435 15.9686C24.7435 16.1947 24.8565 16.3642 25.0826 16.4208L28.135 17.2121C29.5482 17.6078 30.6222 18.6253 30.7917 19.9254C31.0178 21.7342 29.6047 23.2604 27.7959 23.4865V24.4474C27.7959 24.9562 27.3437 25.3518 26.7784 25.3518H25.8175C25.2522 25.3518 24.8 24.9562 24.8 24.4474V23.4865C24.1217 23.43 23.4434 23.1473 22.8781 22.8082C22.7086 22.6951 22.539 22.5255 22.539 22.2429C22.539 22.1299 22.5955 22.0168 22.652 21.9603C22.7086 21.9038 22.7086 21.8472 22.7651 21.7907L23.8391 20.7732C24.0652 20.6037 24.4043 20.5471 24.7435 20.6602C24.9131 20.7732 25.1392 20.8298 25.3653 20.8298H27.3437C27.6263 20.8298 27.8524 20.6037 27.8524 20.321C27.8524 20.0949 27.7393 19.9254 27.5132 19.8688L24.4609 19.0775ZM41.0794 29.4782C41.4186 29.7608 41.7012 30.2696 41.7012 30.7783C41.7012 31.4001 41.4186 31.9088 41.0229 32.1914L32.431 39.0311C31.8092 39.5398 31.0178 39.8224 30.17 39.8224H10.0468C9.53806 39.8224 9.14238 39.4267 9.14238 38.918V33.4915C9.14238 33.0393 9.53806 32.5871 10.0468 32.5871H13.1557L15.7559 30.4957C16.9429 29.5347 18.3561 29.026 19.9953 28.9695H29.0394C30.0004 28.9695 30.7917 29.8174 30.8483 30.7783C30.8483 30.7783 30.8483 30.7783 30.8483 30.8348C30.8483 30.8914 30.7917 31.0044 30.7917 31.1175C30.6787 32.0219 29.8308 32.5871 28.9264 32.5871H24.5174C24.0087 32.5871 23.613 33.0393 23.613 33.4915C23.613 34.0003 24.0087 34.3959 24.5174 34.3959H31.1874C32.0353 34.3959 32.8267 34.1133 33.4484 33.6046L38.6488 29.4782C39.3837 28.913 40.4011 28.8564 41.0794 29.4782Z" fill="#001726"/>
</svg>
