<svg width="48" height="49" viewBox="0 0 48 49" fill="none" xmlns="http://www.w3.org/2000/svg">
<rect y="0.689941" width="48" height="48" rx="24" fill="#0DC143"/>
<path d="M34.7507 13.9014C32.1777 11.2528 28.621 9.81494 24.9885 9.81494C17.2696 9.81494 11.0642 16.096 11.1399 23.7393C11.1399 26.1609 11.821 28.5068 12.9561 30.6258L10.9885 37.8149L18.3291 35.923C20.3723 37.0582 22.6426 37.5879 24.9128 37.5879C32.5561 37.5879 38.7615 31.3068 38.7615 23.6636C38.7615 19.9555 37.3237 16.4744 34.7507 13.9014ZM24.9885 35.242C22.9453 35.242 20.902 34.7122 19.1615 33.6528L18.7074 33.4258L14.3183 34.5609L15.4534 30.2474L15.1507 29.7933C11.821 24.4203 13.4101 17.3068 18.8588 13.9771C24.3074 10.6474 31.3453 12.2366 34.675 17.6852C38.0047 23.1339 36.4156 30.1717 30.9669 33.5014C29.2264 34.6366 27.1074 35.242 24.9885 35.242ZM31.648 26.842L30.8156 26.4636C30.8156 26.4636 29.6047 25.9339 28.848 25.5555C28.7723 25.5555 28.6966 25.4798 28.621 25.4798C28.3939 25.4798 28.2426 25.5555 28.0912 25.6312C28.0912 25.6312 28.0156 25.7068 26.9561 26.9176C26.8804 27.069 26.7291 27.1447 26.5777 27.1447H26.502C26.4264 27.1447 26.275 27.069 26.1993 26.9933L25.821 26.842C24.9885 26.4636 24.2318 26.0095 23.6264 25.4041C23.475 25.2528 23.248 25.1014 23.0966 24.9501C22.5669 24.4203 22.0372 23.8149 21.6588 23.1339L21.5831 22.9825C21.5074 22.9068 21.5074 22.8312 21.4318 22.6798C21.4318 22.5285 21.4318 22.3771 21.5074 22.3014C21.5074 22.3014 21.8101 21.9231 22.0372 21.696C22.1885 21.5447 22.2642 21.3176 22.4156 21.1663C22.5669 20.9393 22.6426 20.6366 22.5669 20.4095C22.4912 20.0312 21.5831 17.9879 21.3561 17.5339C21.2047 17.3068 21.0534 17.2312 20.8264 17.1555H20.5993C20.448 17.1555 20.221 17.1555 19.9939 17.1555C19.8426 17.1555 19.6912 17.2312 19.5399 17.2312L19.4642 17.3068C19.3128 17.3825 19.1615 17.5339 19.0101 17.6095C18.8588 17.7609 18.7831 17.9122 18.6318 18.0636C18.102 18.7447 17.7993 19.5771 17.7993 20.4095C17.7993 21.0149 17.9507 21.6203 18.1777 22.1501L18.2534 22.3771C18.9345 23.8149 19.8426 25.1014 21.0534 26.2366L21.3561 26.5393C21.5831 26.7663 21.8101 26.9176 21.9615 27.1447C23.5507 28.5068 25.3669 29.4906 27.4101 30.0203C27.6372 30.096 27.9399 30.096 28.1669 30.1717C28.3939 30.1717 28.6966 30.1717 28.9237 30.1717C29.302 30.1717 29.7561 30.0203 30.0588 29.869C30.2858 29.7176 30.4372 29.7176 30.5885 29.5663L30.7399 29.4149C30.8912 29.2636 31.0426 29.1879 31.1939 29.0366C31.3453 28.8852 31.4966 28.7339 31.5723 28.5825C31.7237 28.2798 31.7993 27.9014 31.875 27.5231C31.875 27.3717 31.875 27.1447 31.875 26.9933C31.875 26.9933 31.7993 26.9176 31.648 26.842Z" fill="white"/>
</svg>
